<?xml version="1.0" encoding="UTF-8"?> <svg xmlns="http://www.w3.org/2000/svg" xmlns:xlink="http://www.w3.org/1999/xlink" version="1.1" id="Camada_1" x="0px" y="0px" viewBox="0 0 2904 1042" style="enable-background:new 0 0 2904 1042;" xml:space="preserve"> <style type="text/css"> .st0{fill:url(#SVGID_1_);} .st1{fill:url(#SVGID_00000170269543236236281740000015575886080989642943_);} .st2{fill:url(#SVGID_00000142173485582560117210000011655841615278268329_);} .st3{fill:url(#SVGID_00000105421399072689583990000011489559520454028204_);} .st4{fill:#FFFFFF;} </style> <g> <linearGradient id="SVGID_1_" gradientUnits="userSpaceOnUse" x1="239.706" y1="338.4244" x2="445.679" y2="485.0385" gradientTransform="matrix(1 0 0 -1 0 1044)"> <stop offset="0" style="stop-color:#41B7B0"></stop> <stop offset="0.17" style="stop-color:#40B3AD"></stop> <stop offset="0.34" style="stop-color:#3CA8A4"></stop> <stop offset="0.5" style="stop-color:#379595"></stop> <stop offset="0.66" style="stop-color:#2F7A7F"></stop> <stop offset="0.81" style="stop-color:#255764"></stop> <stop offset="0.97" style="stop-color:#182D42"></stop> <stop offset="1" style="stop-color:#15233A"></stop> </linearGradient> <path class="st0" d="M258,784l104.4-285.9l130.1,147.6L258,784z"></path> <linearGradient id="SVGID_00000051360247190039861030000009673286482129004971_" gradientUnits="userSpaceOnUse" x1="267.487" y1="438.6415" x2="678.664" y2="438.6415" gradientTransform="matrix(1 0 0 -1 0 1044)"> <stop offset="0" style="stop-color:#41B7B0"></stop> <stop offset="0.36" style="stop-color:#328588"></stop> <stop offset="1" style="stop-color:#15233A"></stop> </linearGradient> <path style="fill:url(#SVGID_00000051360247190039861030000009673286482129004971_);" d="M258,426.7L550.3,784l64.4-357.3H258z"></path> <linearGradient id="SVGID_00000100344728118894259090000003823074422632680345_" gradientUnits="userSpaceOnUse" x1="415.2094" y1="739.1864" x2="845.4554" y2="202.2024" gradientTransform="matrix(1 0 0 -1 0 1044)"> <stop offset="0.1" style="stop-color:#41B7B0"></stop> <stop offset="0.21" style="stop-color:#3CA7A3"></stop> <stop offset="0.43" style="stop-color:#307E83"></stop> <stop offset="0.73" style="stop-color:#1D3C4E"></stop> <stop offset="0.84" style="stop-color:#15233A"></stop> </linearGradient> <path style="fill:url(#SVGID_00000100344728118894259090000003823074422632680345_);" d="M550.3,784l-89.2-526l344.3,223.3 L550.3,784z"></path> <linearGradient id="SVGID_00000008129259819471872860000018318662149570559678_" gradientUnits="userSpaceOnUse" x1="523.2953" y1="614.5215" x2="1030.2883" y2="113.9035" gradientTransform="matrix(1 0 0 -1 0 1044)"> <stop offset="4.000000e-02" style="stop-color:#41B7B0"></stop> <stop offset="0.92" style="stop-color:#15233A"></stop> </linearGradient> <path style="fill:url(#SVGID_00000008129259819471872860000018318662149570559678_);" d="M550.3,784l60.6-357.3h241.6L550.3,784z"></path> <path class="st4" d="M991.2,422.6c0-72.2,42.7-95.1,108.3-95.1c24.2-0.2,48.3,2.7,71.7,8.7c2.8,14.3,2.8,35.3,0,49.1 c-20.3-4.5-41-6.8-61.8-6.7c-29.6,0-53.6,5.1-53.6,55.8v142.3c0,50.2,24.1,55.8,53.6,55.8c23,0,43.8-6.1,62.9-12.3 c4.4,14.3,6.6,32.2,6.6,48.6c-27.9,10.8-56.9,15.9-79.4,15.9c-65.7-0.1-108.3-23.1-108.3-95.3V422.6z"></path> <path class="st4" d="M1334.6,645.3h-2.6c-6.2,28.3-29.3,39.4-56.7,39.4c-35.6,0-61.8-19.2-61.8-70.6c0-65.8,29.9-79.2,73.2-79.2 c15.1,0,30.1,1.6,44.8,4.8v-24.6c0-27.4-10.3-42.3-44.8-42.3c-17.2,0.2-34.4,2.4-51,6.7c-2.6-14.9-2.6-30.2,0-45.1 c22.2-5.2,45.1-7.8,68-7.7c63.4,0,87.6,25.5,87.6,84v171.1c-13.9,2.4-38.2,2.4-52.1,0L1334.6,645.3z M1331.6,573.7 c-9.2-2.6-18.7-3.9-28.3-3.9c-19.5,0-30.4,5.3-30.4,37.5c0,27.9,7.7,35.1,24.2,35.1c20.1,0,30.4-9.6,34.5-30.7V573.7z"></path> <path class="st4" d="M1578.9,620.5c0,46.5-30.7,64.2-79.2,64.2c-21,0-44.2-1.9-66.2-7.2c-3.2-14.2-3.2-28.9,0-43.2 c16.7,4,33.9,6.1,51.2,6.2c16.7,0,32.3-2.4,32.3-26.4v-11.5c0-18.2-4.3-21.1-20.4-25.9l-28-8.6c-26.9-8.2-37.7-24.5-37.7-56.1v-23 c0-44.6,33.4-62.4,85.6-62.4c20.1,0,40,2.5,59.2,7.7c2.7,14.1,2.7,28.6,0,42.7c-19.4-4.8-33.4-6.7-46.3-6.7 c-21,0-36.6,2.5-36.6,25.9v12c0,14.4,2.7,19.7,21.6,25.4l28.6,8.6c28,8.6,36.1,24,36.1,58L1578.9,620.5z"></path> <path class="st4" d="M1754.1,509.1c0-32.5-12.3-36-27.8-36c-23,0-33.6,23-33.6,37.5c0,14.5-2.2,172.3-2.2,172.3 c-15,2.5-47.1,2.5-62,0V329.4c16-2.5,48.7-2.5,64.2,0v94.5v27.6c7.1-24.8,46.7-24.8,59.1-24.8c24.8,0,64.4,15.9,64.4,69.6v186.6 c-15.5,2.5-45.9,2.5-62,0L1754.1,509.1z"></path> <path class="st4" d="M2043.6,373.5l-77.5,309.6c-8,2.1-16.4,2.1-24.4,0l-91-354.1c8-2.2,16.4-2.2,24.4,0l79.6,317.1l78.6-317.1 c7.2-2.1,15-2.1,22.2,0l78,317.1l80.8-317.1c7.1-2.1,14.6-2.1,21.7,0l-91.6,354.1c-7.4,2.1-15.3,2.1-22.7,0L2043.6,373.5z"></path> <path class="st4" d="M2393.3,645.1h-2.2c-7,28.9-31.8,39.6-64.7,39.6c-37.2,0-65.8-20.1-65.8-72c0-61.2,31.8-75.4,77.7-75.4 c17.6-0.3,35.2,1.5,52.3,5.4v-42.1c0-35.3-11.9-54.3-51.8-54.3c-18.7-0.1-37.4,2-55.5,6.4c-2.2-6.2-2.2-12.9,0-19.1 c19.9-5.4,39.9-6.8,58.8-6.8c46.9,0,71.7,23.9,71.7,63.6v190.9c-5.4,2-11.3,2-16.7,0L2393.3,645.1z M2390.6,560.8 c-17.2-3.3-34.7-4.9-52.3-4.9c-35.6,0-55,8.3-55,56.3c0,46,22.1,51.9,47.4,51.9c39.4,0,49.6-12.7,59.9-46.5V560.8z"></path> <path class="st4" d="M2626.2,652.7v-9.4c-6.4,29.3-34.3,37-67.3,37c-37.8,0-66-19.8-66-71.7V429.3c7.5-2,17.2-2.1,24.7-0.1v176.3 c0,48.5,20,54,45.5,54c38.3,0,58.2-18.6,58.2-54s0-176.3,0-176.3c7.5-2,17.2-1.9,24.7,0.1v281.5c0,49.4-26.6,73.2-75.5,73.2 c-21.1,0.1-42-2.7-62.2-8.4c-0.5-4.9,0.5-15.3,3.2-19.3c19.2,5.1,39.1,7.6,59,7.4c33,0,55.8-10.3,55.8-55.3V652.7z"></path> </g> </svg> 